<svg xmlns="http://www.w3.org/2000/svg" width="940" height="940" version="1" viewBox="0 0 940 940"><g fill="none" fill-rule="nonzero"><path fill="#566775" d="M707 245l-85 86c-7 7-16 10-25 10H343c-9 0-18-3-25-10l-85-86a64 64 0 0 1 0-90l85-86c7-7 16-10 25-10h254c9 0 18 3 25 10l85 86a64 64 0 0 1 0 90z"/><path fill="#627989" d="M359 280h223V120H359z"/><path fill="#232D33" d="M396 246v-93h36v93h-36zM510 246v-93h36v93h-36z"/><g><path fill="#2D3840" d="M677 677l49-25 81 160-49 25z"/><path fill="#A49797" d="M434 303l32-17 55 108-32 17zM535 251l32-16 55 107-32 17z"/><path fill="#38454F" d="M615 617l98-50 44 85-98 50z"/><path fill="#4B5B68" d="M621 628c-9-17-65 25-93-30l-81-158 221-113 81 159c28 55-40 73-30 92l-98 50z"/><path fill="#38454F" d="M410 427l270-138 20 38-270 137z"/></g><g fill="#E2D74C"><path d="M424 660l-51 24-139-282-37 18 138 283-51 25 116 60z"/><path d="M89 588l50-24 139 282 38-18-139-283 51-25-116-60z"/></g></g></svg>